<?xml version="1.0" encoding="UTF-8"?><svg id="a" xmlns="http://www.w3.org/2000/svg" width="163.51" height="175.43" viewBox="0 0 163.51 175.43"><path d="M105.57,174.4c-.25,0-.51-.03-.76,0-1.05,.16-2.03-.22-2.92-.61-.71-.31-1.38-.83-1.91-1.53-.57-.75-1.09-1.47-1.31-2.39-.16-.66-.44-1.28-.43-1.98,.02-.68,0-1.35,0-2.03,0-.49,0-.95,.23-1.43,.25-.5,.3-1.08,.29-1.66-.03-1.18-.15-2.38,.49-3.47-.35-.58-.16-1.27-.35-1.88-.15-.49-.31-.98-.4-1.48-.24-1.23-.91-2.09-2-2.71-.76-.43-1.53-.85-2.39-.63-.71,.19-1.4,.53-2.01,.94-1.62,1.08-2.29,2.27-2.76,4.28-.28,1.19-.41,2.38-.54,3.6-.11,.98-.09,1.97-.23,2.94-.19,1.32-.55,2.64-1.07,3.87-.7,1.66-1.57,3.23-2.92,4.51-1.22,1.16-2.64,1.9-4.2,2.44-.55,.19-1.1,.29-1.67,.24-1.02-.08-2.03,.08-3.08-.21-1.12-.3-2.17-.73-3.13-1.33-1.94-1.22-3.21-3.03-4.13-5.1-.16-.37,.13-.86-.33-1.13-.08-.85-.21-1.7-.25-2.56-.07-1.83-.42-3.64-.26-5.48-.38-.87-.19-1.79-.27-2.69-.05-.59-.15-1.2-.34-1.76-.25-.74-.57-1.46-.93-2.15-.27-.52-.78-.84-1.35-.93-.57-.09-1.13,.13-1.55,.51-.89,.78-1.64,1.69-2.17,2.77-.32,.64-.9,1.16-1.12,1.82-.39,1.16-1.08,2.17-1.41,3.35-.42,1.51-1.01,2.98-1.37,4.5-.28,1.2-.77,2.31-1.18,3.45-.44,1.22-1.12,2.34-1.86,3.43-.65,.95-1.44,1.71-2.39,2.21-1.67,.88-2.42,1.04-4.34,.42-1.28-.42-2.27-1.16-3.12-2.28-1.36-1.78-2.06-3.8-2.73-5.86-.4-1.23-.8-2.46-1.17-3.7-.15-.49-.37-1.01-.33-1.5,.09-1.06-.38-1.97-.58-2.95-.02-.11-.19-.19-.2-.3-.1-.85-.19-1.7-.26-2.56-.03-.42,.05-.86-.02-1.27-.07-.38-.3-.72-.4-1.1-.08-.27-.08-.57-.08-.85,0-2.28,.01-4.57-.01-6.85,0-.52,.22-1.09-.24-1.55-.04-.04,0-.17,0-.25-.05-.32,.51-.54,.06-.97-.24-.23-.2-.74-.31-1.12-.1-.34-.22-.67-.34-1-.11-.29-.25-.57-.35-.87-.61-1.81-2.05-2.93-3.51-3.96-1.01-.72-2.17-1.23-3.4-1.59-.93-.27-1.79-.76-2.73-1.07-.85-.29-1.69-.62-2.51-.99-.97-.43-1.84-1.09-2.73-1.68-2.1-1.39-3.77-3.26-5.53-5.03-.38-.39-.5-1.04-1.16-1.14-.13-.57-.63-.85-.99-1.24-.7-.74-1.51-1.39-1.89-2.39-.06-.14-.23-.24-.35-.36-1.29-1.37-2.4-2.9-3.62-4.32-1.2-1.39-2.23-2.9-3.24-4.39-1.18-1.74-2.4-3.53-2.9-5.63-.12-.49-.72-.67-.58-1.31,.08-.35-.29-.79-.42-1.2-.14-.45-.13-1-.39-1.35-.42-.55,.19-1.29-.42-1.74,.04-.58-.34-1.06-.27-1.67,.14-1.24-.43-2.45-.23-3.7-.35-.56-.27-1.19-.25-1.8,.02-.56,.32-1.07,.27-1.67-.05-.55-.1-1.12,.21-1.69,.16-.29,.03-.75,.03-1.13v-1.78c.58-.39-.07-1.18,.51-1.57,.01-.57-.1-1.16,.25-1.67-.17-1.01,.83-1.8,.51-2.84,.6-1.08,.64-2.35,1.14-3.46,.22-.5,.38-1.03,.65-1.5,.31-.54,.31-1.14,.47-1.71,.26-.95,1.03-3.06,1.58-3.79,.54-.71,.7-1.58,.95-2.4,.15-.5,.33-1.04,.61-1.39,.53-.66,.72-1.4,.96-2.15,.14-.44,.45-.83,.6-1.27,.22-.64,.75-1.09,.93-1.77,.17-.64,.56-1.22,.98-1.75,.16-.2,.16-.52,.27-.77,.22-.46,.38-.99,.72-1.34,.5-.51,.72-1.15,1.06-1.73,.61-1.05,.95-2.26,1.76-3.21,.22-.26,.43-.61,.46-.94,.08-.98,.84-1.6,1.22-2.42,.24-.5,.5-.95,.65-1.52,.2-.78,.53-1.62,1.05-2.21,.69-.78,.89-1.78,1.49-2.57,.46-.61,.84-1.27,1.33-1.87,.71-.85,1.23-1.83,1.68-2.85,.34-.78,.83-1.47,1.47-2.06,.98-.92,1.63-2.1,2.3-3.23,.57-.98,1.23-1.88,1.94-2.74,.97-1.19,2.01-2.32,3.1-3.4,.36-.36,.97-.61,.83-1.3,.43-.39,.83-.81,1.3-1.15,.34-.24,.64-.48,.93-.79,.53-.56,.96-1.25,1.75-1.57,.29-.12,.48-.47,.73-.7,1.37-1.29,2.75-2.57,4.35-3.59,.1-.07,.18-.17,.29-.21,.86-.34,1.66-.73,2.1-1.65,.17-.34,.58-.53,.94-.75,1.26-.78,2.56-1.52,3.65-2.56,.57-.55,1.27-.98,1.96-1.38,.64-.37,1.3-.73,1.98-1.03,.29-.13,.64-.19,.84-.4,1.12-1.16,2.57-1.71,4.04-2.22,.68-.24,1.27-.6,1.9-.93,.66-.34,1.35-.64,1.98-1.03,.66-.4,1.42-.43,2.12-.7,1.06-.4,2.13-.79,3.23-1.11,1.08-.32,2.16-.7,3.23-1.08,.48-.17,.98-.3,1.49-.39,.74-.13,1.51-.16,2.2-.52,1.13,.18,2.12-.47,3.22-.52,.31-.01,.6-.18,.91-.24,.31-.06,.67,.12,.93-.22,.05-.06,.24-.04,.36-.03,1.29,.06,2.53-.43,3.83-.26,1.47-.47,2.97-.2,4.46-.24,1.52-.04,3.05-.03,4.57,0,.64,.02,1.28,.19,1.93,.23,.63,.04,1.31-.13,1.89,.05,.65,.2,1.32,.08,1.93,.25,.65,.18,1.3,.12,1.93,.24,1.03,.19,2.09,.28,3.08,.54,1.56,.4,3.15,.73,4.71,1.15,1.78,.49,3.56,.99,5.31,1.6,1.11,.39,2.22,.78,3.28,1.27,1.92,.89,3.82,1.82,5.7,2.79,1.16,.59,2.27,1.26,3.39,1.92,.58,.34,1.14,.73,1.7,1.12,1.12,.78,2.24,1.56,3.33,2.38,1.48,1.12,2.82,2.43,4.22,3.64,1.24,1.07,2.37,2.23,3.53,3.37,.77,.75,1.55,1.52,2.13,2.42,.57,.88,1.27,1.65,1.87,2.51,.71,1.02,1.44,2.05,2.2,3.04,.1,.13,.23,.24,.29,.39,.66,1.5,1.65,2.79,2.47,4.18,.87,1.48,1.6,3.05,2.35,4.61,1.09,2.25,2.04,4.57,2.88,6.93,.68,1.92,1.45,3.8,1.99,5.78,.23,.87,.52,1.73,.79,2.59,.28,.9,.64,1.77,.88,2.68,.24,.88,.28,1.83,.6,2.67,.51,1.37,.72,2.82,1.19,4.2,.29,.86,.38,1.79,.56,2.69,.24,1.16,.57,2.31,.83,3.47,.22,.96,.38,1.94,.68,2.88,.51,1.62,.79,3.3,1.21,4.95,.32,1.26,.69,2.53,.89,3.84,.14,.91,.31,1.86,.67,2.75,.18,.43,.05,.93,.26,1.42,.23,.54,.2,1.18,.29,1.78,.08,.6,.16,1.2,.26,1.8,.07,.43,.19,.86,.24,1.29,.05,.4-.08,.83,.26,1.17,.02,.02,0,.08,0,.12,.08,1.28,.25,2.55,.23,3.83-.03,2.09,.4,4.15,.29,6.24-.07,1.32-.26,2.63-.34,3.95-.07,1.1-.14,2.26-.46,3.34-.44,1.46-.75,2.96-1.35,4.39-.53,1.27-1.22,2.45-1.76,3.71-.36,.83-.95,1.57-1.51,2.29-.44,.56-1.06,.98-1.5,1.55-.42,.54-.77,1.09-1.42,1.44-.5,.27-.85,.81-1.27,1.23-2.12,2.1-4.57,3.77-7.01,5.46-.8,.55-1.73,.92-2.6,1.36-.6,.3-1.11,.73-1.74,1.01-2.75,1.25-5.54,2.36-8.41,3.29-1.32,.43-2.58,1.05-3.58,2.07-.56,.57-1.15,1.13-1.7,1.71-.95,.99-1.68,2.16-2.41,3.32-.57,.89-1.09,1.83-1.52,2.79-.56,1.29-1.1,2.59-1.6,3.91-.68,1.83-1.38,3.66-1.97,5.53-.72,2.29-1.63,4.52-2.04,6.9-.6,1.05-.7,2.25-.99,3.39-.29,1.11-.5,2.26-.82,3.35-.46,1.55-.95,3.17-2.3,4.23-.83,.65-1.67,1.3-2.73,1.68-.83,.29-1.62,.76-2.49,1.04-.37,.12-.72,.35-1.09,.42-.72,.13-1.45,.2-2.18,.26-.38,.03-.76,0-1.14,0Zm6.93-117.77c-1.08-.15-2.46-.01-3.77,.3-1.28,.31-2.66,.42-3.8,1.23-2.1,.56-3.79,1.84-5.39,3.19-1.9,1.61-3.28,3.64-4.24,5.96-.48,1.15-.81,2.36-.82,3.58-.02,1.82-.24,3.65,.19,5.48,.21,.9,.05,1.86,.25,2.81,.19,.91,0,1.87,.27,2.81,.19,.65-.18,1.41,.28,2.04-.19,.76,.24,1.44,.28,2.18,.04,.74,.3,1.47,.48,2.2,.21,.84,.41,1.69,.67,2.51,.69,2.2,1.44,4.38,2.35,6.51,.49,1.16,.99,2.3,1.67,3.37,.48,.76,1.09,1.42,1.59,2.14,.61,.88,1.34,1.62,2.13,2.26,.79,.64,1.52,1.42,2.58,1.7,.44,.12,.81,.48,1.25,.65,.58,.22,1.12,.53,1.77,.65,.66,.12,1.39,.24,1.99,.7,.27,.2,.61,.5,.92,0,.56,.11,1.11-.08,1.71,.16,.54,.21,1.25,.16,1.84,.03,.95-.21,1.9-.36,2.86-.43,.98-.07,1.08-.1,2.13-.69,.58-.33,1.21-.59,1.91-.6,.22,0,.48-.09,.66-.23,1.57-1.21,3.38-2.14,4.44-3.92,1.2-.92,1.89-2.27,2.83-3.41,.44-.53,.57-1.33,1.25-1.73,.04-.02-.02-.17,0-.24,.27-.69,.56-1.37,.82-2.07,.26-.7,.41-1.43,.81-2.08,.06-.1,.12-.21,.14-.32,.28-1.33,.88-2.59,.77-4,0-.08-.03-.19,0-.25,.45-.73,.03-1.59,.29-2.29,.29-.79,.19-1.55,.2-2.32,.02-.9-.1-1.79-.19-2.69-.14-1.46-.34-2.9-.53-4.35-.13-.96-.4-1.88-.66-2.78-.55-1.87-1.32-3.68-2.16-5.44-.76-1.59-1.67-3.1-2.86-4.38-1.27-1.37-2.56-2.74-4.06-3.91-1.8-1.41-3.78-2.49-5.89-3.26-1.88-.69-3.85-1.17-5.9-1.08-.25,.01-.51,0-1.06,0ZM30.22,93.33c.1,.89-.12,1.96,.21,3.03,.19,.63,.31,1.31,.48,1.96,.37,1.38,.88,2.69,1.63,3.89,.55,.88,1.11,1.77,1.8,2.55,1.98,2.24,4.39,3.88,7.28,4.77,.41,.13,.86,.2,1.22,.41,.86,.5,1.88-.05,2.71,.49,.63-.53,1.37-.14,2.05-.25,.29-.05,.59-.03,.89,0,.26,.02,.48-.05,.65-.24,.22,.29,.42,.3,.72,.04,.19-.17,.5-.23,.76-.28,.63-.12,1.27-.19,1.91-.29,.16-.02,.33-.02,.47-.08,.53-.25,1.02-.61,1.58-.78,.57-.17,1.11-.38,1.63-.66,1.25-.66,2.43-1.44,3.75-1.97,.25-.1,.47-.29,.7-.44,.23-.15,.46-.33,.7-.44,.62-.29,1.15-.74,1.47-1.28,.29-.48,.66-.84,1.02-1.22,1.03-1.06,2.09-2.1,3.13-3.14,.83-.83,1.48-1.91,2.07-3.33,.18-.43,.42-.86,.72-1.22,.34-.41,.58-.84,.82-1.31,.49-.95,.77-1.97,1.22-2.92,.52-1.08,.63-2.27,1-3.39,.15-.46-.13-.98,.16-1.46,.28-.45-.09-1.07,.36-1.5-.1-1.37,.39-2.7,.27-4.08-.05-.55-.21-1.16,.22-1.68,.08-.09,.05-.37-.04-.47-.42-.51-.09-1.18-.43-1.74-.23-.39,.11-.97-.18-1.44-.28-.45,.09-1.08-.36-1.5-.04-1.17-.98-3.69-1.53-4.82-.74-1.54-1.64-2.98-2.65-4.37-.98-1.33-2.24-2.3-3.45-3.34-.89-.76-2.01-1.23-3.1-1.67-.73-.29-1.41-.65-2.21-.82-.52-.11-1.09-.03-1.54-.23-1.44-.63-2.87-.15-4.2,.14-1.54,.34-3.07,.91-4.5,1.67-.56,.3-1.05,.74-1.62,1-1.41,.63-2.61,1.61-3.72,2.61-1.02,.92-2.18,1.71-3.02,2.87-.74,1.02-1.64,1.92-2.41,2.94-1.27,1.69-2.34,3.49-3.36,5.34-.76,1.38-1.39,2.8-1.91,4.28-.28,.81-.58,1.62-.9,2.42-.32,.81-.52,1.65-.78,2.47-.51,1.59-1.08,3.14-1.23,4.82-.49,.47-.04,1.15-.33,1.64-.36,.61-.09,1.23-.17,1.83-.04,.33,0,.68,0,1.18Zm48.89,23.23c-.19-.19-.41-.39-.61-.61-.24-.26-.5-.24-.78-.09-.37,.21-.71,.39-.91,.87-.46,1.16-1.05,2.27-1.58,3.39-1.01,2.11-2.01,4.23-3.05,6.33-.14,.29,.1,.71-.34,.87-.21,.9,.57,1.79,1.67,1.89,.44,.04,.91-.13,1.3,.24,.08,.08,.4,.06,.47-.02,.31-.36,.7-.2,1.06-.21,.8-.03,1.61,.03,2.4-.03,.33-.02,.66-.23,.98-.38,.27-.13,.16-.48,.27-.64,.27-.38,.25-.78,.23-1.18-.07-1.36-.16-2.72-.25-4.07-.08-1.19-.17-2.38-.25-3.57,0-.08-.03-.16-.05-.23-.31-.8-.28-1.65-.55-2.58Zm6.34,1.26c-.14,.08-.28,.15-.42,.23-.35,.21-.75,.39-.75,.89,0,1.39,0,2.79,0,4.18,.58,.92,.07,1.99,.46,2.98,.3,.77,.2,1.69,.3,2.54,.07,.56,.65,1.3,1.08,1.33,.66,.06,1.32-.05,1.81-.5,.63-.58,1.4-.91,2.12-1.33,1.22-.7,1.31-1.41,.56-2.37-1.23-1.6-2.15-3.41-3.14-5.16-.23-.41-.57-.81-.62-1.25-.06-.44-.27-.68-.55-.92-.27-.24-.58-.42-.86-.62Zm7.85-89.46c.14,.28,.21,.65,.4,.72,.37,.15,.75,.43,1.19,.31,.41-.12,.82-.25,1.19-.45,.24-.13,.46-.36,.38-.71-.08-.39-.31-.52-.69-.55-.87-.06-1.62,.28-2.48,.67Zm-20.97,5.98q.14,.74,1.07,1.24c.68-.38,1.53-.66,1.15-1.84-.73,.2-1.44,.39-2.22,.6Zm15.56-9.45c.75,.16,1.06-.62,1.7-.62,.18,0,.36-.32,.53-.51,.04-.05,0-.16,0-.26-.27-.13-.55-.27-.74-.37-.43,.19-.8,.32-1.14,.51-.49,.26-.46,.72-.35,1.25Zm1.68,10.12c.15-.63-.03-1.07-.5-1.35-.17-.1-.5-.12-.66-.02-.17,.1-.35,.45-.29,.59,.11,.29,.1,.64,.49,.86,.39,.22,.62,.01,.96-.08Zm21.49-1.21c-.17,.28-.33,.44-.35,.61-.01,.17,.11,.37,.23,.52,.16,.21,.76,.17,1.03,0,.25-.17,.3-.42,.23-.66-.18-.59-.69-.47-1.13-.46Zm-25.77,54.33c.04,1.03,.21,1.32,.71,1.24,.14-.02,.3-.12,.4-.22,.29-.31,.15-.67,.11-1.02h-1.22Zm-1.45-72.07c-.73-.77-.84-.76-1.34,.06q.63,.54,1.34-.06Zm-11.7,9.44c.15,.3,.26,.5,.36,.71,.8-.58,.82-.78,.2-1.6-.2,.31-.39,.62-.57,.89Zm26.9,2.65c.92-.03,.94-.05,.89-.97-.31,.01-.62,.03-.89,.04v.93Zm-28.11,18.58c.29-.29,1.05-.33,.53-1.02-.94,.13-1.04,.29-.53,1.02Zm-15.57-17.27c.6,.04,.97-.08,1-.71h-1v.71Zm30.71,6.84c.61,.07,.96-.08,1.01-.7h-1.01v.7Zm-6.29-6.08c-.34-.48-.64-.61-1.09-.39,.01,.2,.02,.43,.04,.77,.39-.14,.67-.24,1.05-.38Zm10.89,6.88c.47-.44,.72-.67,.96-.89-.4-.56-.69-.1-.96-.02v.91Zm58.81,31.16c.4-.3,.59-.44,.84-.63-.28-.17-.47-.28-.78-.47-.02,.35-.03,.57-.06,1.09ZM79.85,35.78c-.2-.11-.33-.23-.38-.2-.11,.06-.18,.2-.26,.3,.08,.07,.18,.2,.25,.18,.12-.03,.21-.14,.39-.28Zm-3.24,3.85h-.13v.51h.13v-.51Z" fill="#e1ad01"/></svg>