<?xml version="1.0" encoding="UTF-8"?><svg id="a" xmlns="http://www.w3.org/2000/svg" width="334.33" height="370.88" viewBox="0 0 334.33 370.88"><polygon points="132.05 303.98 112.28 336.65 74.79 328.73 132.05 303.98" fill="#9d9b9c"/><polygon points="167.17 364 112.28 370.88 112.28 336.65 167.17 364" fill="#9d9b9c"/><polygon points="167.17 275.03 167.17 364 132.05 303.98 167.17 275.03" fill="#9d9b9c"/><polygon points="167.17 219.1 132.05 303.98 94.67 222.18 167.17 219.1" fill="#9d9b9c"/><polygon points="94.67 222.18 74.79 328.73 50.84 326.63 94.67 222.18" fill="#b6b4b5"/><polygon points="94.67 222.18 50.84 326.63 36.21 317.39 94.67 222.18" fill="#9d9b9c"/><polygon points="94.67 222.18 36.21 317.39 16.72 254.36 94.67 222.18" fill="#858383"/><polygon points="50.48 203.31 16.72 254.36 0 200.29 50.48 203.31" fill="#858383"/><polygon points="167.17 219.1 94.67 222.18 142.32 193.12 167.17 219.1" fill="#858383"/><polygon points="167.17 169.84 167.17 219.1 142.32 193.12 167.17 169.84" fill="#9d9b9c"/><polygon points="167.17 96.66 167.17 169.84 145.78 145.2 167.17 96.66" fill="#6c6a6a"/><polygon points="53.94 155.39 0 200.29 13.1 90.13 53.94 155.39" fill="#858383"/><polygon points="167.17 96.66 101.41 125.95 85.89 93.21 167.17 96.66" fill="#6c6a6a"/><polygon points="109.04 34.01 85.89 93.21 13.1 90.13 109.04 34.01" fill="#6c6a6a"/><polygon points="167.17 0 167.17 96.66 109.04 34.01 109.04 34 167.17 0" fill="#6c6a6a"/><polygon points="85.89 93.21 53.94 155.39 13.1 90.13 85.89 93.21" fill="#5d5d5d"/><polygon points="167.17 96.66 85.89 93.21 109.04 34.01 167.17 96.66" fill="#545152"/><polygon points="101.59 126.33 53.94 155.39 85.89 93.21 101.41 125.95 101.59 126.33" fill="#545152"/><polygon points="167.17 96.66 145.78 145.2 101.59 126.33 101.41 125.95 167.17 96.66" fill="#858383"/><polygon points="167.17 169.84 142.32 193.12 145.78 145.2 167.17 169.84" fill="#858383"/><polygon points="167.17 364 112.28 336.65 132.05 303.98 167.17 364" fill="#b6b4b5"/><line x1="101.41" y1="125.95" x2="100.55" y2="126.33" fill="none"/><polygon points="53.94 155.39 50.48 203.31 0 200.29 53.94 155.39" fill="#9d9b9c"/><polygon points="94.67 222.18 16.72 254.36 50.48 203.31 94.67 222.18" fill="#6c6a6a"/><polygon points="132.05 303.98 74.79 328.73 94.67 222.18 132.05 303.98" fill="#858383"/><polygon points="202.28 303.98 222.06 336.65 259.54 328.73 202.28 303.98" fill="#9d9b9c"/><polygon points="167.17 364 222.06 370.88 222.06 336.65 167.17 364" fill="#9d9b9c"/><polygon points="202.28 303.98 167.17 364 167.17 275.03 202.28 303.98" fill="#9d9b9c"/><polygon points="239.67 222.18 202.28 303.98 167.17 219.1 239.67 222.18" fill="#9d9b9c"/><polygon points="239.67 222.18 259.54 328.73 283.49 326.63 239.67 222.18" fill="#b6b4b5"/><polygon points="239.67 222.18 283.49 326.63 298.13 317.39 239.67 222.18" fill="#9d9b9c"/><polygon points="239.67 222.18 298.13 317.39 317.62 254.36 239.67 222.18" fill="#858383"/><polygon points="283.85 203.31 317.62 254.36 334.33 200.29 283.85 203.31" fill="#858383"/><polygon points="239.67 222.18 167.17 219.1 192.01 193.12 239.67 222.18" fill="#858383"/><polygon points="167.17 169.84 167.17 219.1 192.01 193.12 167.17 169.84" fill="#9d9b9c"/><polygon points="167.17 96.66 167.17 169.84 188.55 145.2 167.17 96.66" fill="#6c6a6a"/><polygon points="280.39 155.39 334.33 200.29 321.24 90.13 280.39 155.39" fill="#858383"/><polygon points="167.17 96.66 232.93 125.95 248.44 93.21 167.17 96.66" fill="#6c6a6a"/><polygon points="225.3 34.01 248.44 93.21 321.24 90.13 225.3 34.01" fill="#6c6a6a"/><polygon points="167.17 0 167.17 96.66 225.3 34.01 225.3 34 167.17 0" fill="#6c6a6a"/><polygon points="248.44 93.21 280.39 155.39 321.24 90.13 248.44 93.21" fill="#5d5d5d"/><polygon points="167.17 96.66 248.44 93.21 225.3 34.01 167.17 96.66" fill="#545152"/><polygon points="280.39 155.39 232.74 126.33 232.93 125.95 248.44 93.21 280.39 155.39" fill="#545152"/><polygon points="232.93 125.95 232.74 126.33 188.55 145.2 167.17 96.66 232.93 125.95" fill="#858383"/><polygon points="192.01 193.12 167.17 169.84 188.55 145.2 192.01 193.12" fill="#858383"/><polygon points="167.17 364 222.06 336.65 202.28 303.98 167.17 364" fill="#b6b4b5"/><line x1="233.79" y1="126.33" x2="232.93" y2="125.95" fill="none"/><polygon points="334.33 200.29 283.85 203.31 280.39 155.39 334.33 200.29" fill="#9d9b9c"/><polygon points="317.62 254.36 239.67 222.18 283.85 203.31 317.62 254.36" fill="#6c6a6a"/><polygon points="202.28 303.98 259.54 328.73 239.67 222.18 202.28 303.98" fill="#858383"/></svg>