<?xml version="1.0" encoding="UTF-8"?><svg id="a" xmlns="http://www.w3.org/2000/svg" width="232.65" height="166.4" viewBox="0 0 232.65 166.4"><polygon points="23.95 2.1 6.93 87.82 0 0 23.95 2.1" fill="#545152"/><polygon points="43.24 44.3 6.93 87.82 23.95 2.1 43.24 44.3" fill="#6c6a6a"/><polygon points="61.44 84.08 6.93 87.82 43.24 44.3 61.44 84.08" fill="#858383"/><polygon points="61.44 84.08 39.03 110.88 6.93 87.82 61.44 84.08" fill="#9d9b9c"/><polygon points="83.98 143.16 39.03 110.88 61.44 84.08 83.98 143.16" fill="#b6b4b5"/><polygon points="116.32 115.15 116.32 166.4 83.98 143.16 116.32 115.15" fill="#6c6a6a"/><polygon points="116.32 115.15 83.98 143.16 61.44 84.08 116.32 115.15" fill="#9d9b9c"/><polygon points="208.7 2.1 225.71 87.82 232.65 0 208.7 2.1" fill="#545152"/><polygon points="189.41 44.3 225.71 87.82 208.7 2.1 189.41 44.3" fill="#6c6a6a"/><polygon points="171.21 84.08 225.71 87.82 189.41 44.3 171.21 84.08" fill="#858383"/><polygon points="171.21 84.08 193.61 110.88 225.71 87.82 171.21 84.08" fill="#9d9b9c"/><g><polygon points="99.07 71.68 61.43 84.34 61.43 66.96 99.05 71.68 99.07 71.68" fill="#6c6a6a"/><polygon points="116.32 73.83 116.32 115.4 99.07 71.68 116.32 73.83" fill="#9d9b9c"/><polygon points="116.32 115.4 61.43 84.34 99.07 71.68 116.32 115.4" fill="#858383"/><polygon points="171.21 66.96 171.21 84.34 133.57 71.68 133.59 71.68 171.21 66.96" fill="#6c6a6a"/><polygon points="133.57 71.68 116.32 115.4 116.32 73.83 133.57 71.68" fill="#9d9b9c"/><polygon points="171.21 84.34 116.32 115.4 133.57 71.68 171.21 84.34" fill="#858383"/></g><polygon points="148.66 143.16 193.61 110.88 171.21 84.08 148.66 143.16" fill="#b6b4b5"/><polygon points="116.32 115.15 116.32 166.4 148.66 143.16 116.32 115.15" fill="#6c6a6a"/><polygon points="171.21 84.08 148.66 143.16 116.32 115.14 171.21 84.08" fill="#9d9b9c"/></svg>