<?xml version="1.0" standalone="no"?>
<!DOCTYPE svg PUBLIC "-//W3C//DTD SVG 20010904//EN"
 "http://www.w3.org/TR/2001/REC-SVG-20010904/DTD/svg10.dtd">
<svg version="1.0" xmlns="http://www.w3.org/2000/svg"
 width="260.000000pt" height="260.000000pt" viewBox="0 0 260.000000 260.000000"
 preserveAspectRatio="xMidYMid meet">
<metadata>
Created by potrace 1.14, written by Peter Selinger 2001-2017
</metadata>
<g transform="translate(0.000000,260.000000) scale(0.100000,-0.100000)"
fill="#000000" stroke="none">
<path d="M1255 2589 c-22 -4 -58 -11 -80 -14 -47 -8 -181 -54 -245 -85 -113
-54 -295 -190 -379 -284 -14 -16 -31 -34 -37 -40 -6 -6 -22 -28 -35 -48 -13
-20 -50 -75 -81 -122 -32 -48 -58 -90 -58 -95 0 -8 -11 -29 -91 -178 -104
-196 -158 -377 -153 -519 4 -146 48 -236 199 -411 82 -95 138 -139 215 -168
119 -46 141 -75 146 -197 11 -256 73 -418 161 -418 42 0 96 66 117 140 10 34
26 82 37 106 18 44 60 94 77 94 18 0 35 -57 39 -129 4 -104 18 -144 58 -180
20 -17 41 -32 48 -32 63 -7 86 -4 122 16 55 32 81 83 91 183 9 99 55 151 109
122 20 -11 42 -57 38 -80 0 -3 -4 -36 -7 -74 -6 -75 10 -128 45 -147 50 -26
170 1 210 47 17 20 36 72 45 121 10 55 75 237 105 293 43 81 70 103 180 148
210 85 338 216 368 373 19 100 1 304 -39 449 -5 19 -19 78 -31 130 -61 273
-124 439 -225 591 -60 91 -155 189 -239 246 -99 67 -230 120 -361 148 -86 19
-285 26 -349 14z m160 -349 c-3 -5 -11 -10 -16 -10 -6 0 -7 5 -4 10 3 6 11 10
16 10 6 0 7 -4 4 -10z m88 -71 c-6 -6 -17 -8 -24 -3 -9 5 -8 9 7 14 23 9 31 3
17 -11z m-88 -79 c3 -5 1 -10 -4 -10 -6 0 -11 5 -11 10 0 6 2 10 4 10 3 0 8
-4 11 -10z m-225 -4 c0 -11 -19 -15 -25 -6 -3 5 1 10 9 10 9 0 16 -2 16 -4z
m692 -356 c85 -40 168 -141 193 -235 46 -172 13 -325 -91 -431 -100 -101 -262
-103 -360 -5 -69 68 -120 226 -130 402 -6 96 -5 111 15 151 29 60 67 95 137
123 74 30 166 29 236 -5z m-852 -20 c47 -24 86 -70 118 -139 20 -43 25 -72 26
-135 1 -113 -8 -157 -50 -234 -71 -132 -189 -217 -320 -229 -77 -7 -135 12
-186 61 -56 54 -73 99 -72 191 1 192 131 410 289 487 50 24 68 28 109 23 27
-3 66 -15 86 -25z m234 -873 c13 -103 14 -123 8 -134 -12 -18 -101 -22 -111
-5 -10 18 74 196 89 187 5 -3 11 -24 14 -48z m106 5 c0 -5 15 -33 34 -64 18
-31 31 -60 27 -65 -13 -17 -62 -36 -70 -27 -13 13 -27 93 -23 132 2 20 9 32
18 32 8 0 14 -4 14 -8z"/>
</g>
</svg>
